# xmcd
#
# Track frame offsets:
#	150
#	12091
#	30668
#	44747
#	59431
#	76105
#	89335
#	101305
#	113242
#	129191
#	141302
#	152816
#	166575
#	180504
#
# Disc length: 2559 seconds
# Revision: 1
# Processed by: cddbd v1.5.2PL0 Copyright (c) Steve Scherf et al.
# Submitted via: dBpowerAMP V12.0
#
DISCID=a609fd0e
DTITLE=Various Artist - Three Kinds of Lonesome
DYEAR=2011
DGENRE=Country
TTITLE0=The Missy Werner Band - I'd Rather Love a Memory
TTITLE1=The Missy Werner Band with Frank Solivan - Endlessly
TTITLE2=The Missy Werner Band - Leaves In the Wind
TTITLE3=The Missy Werner Band - Three Little Words
TTITLE4=The Missy Werner Band - Three Kinds of Lonesome
TTITLE5=The Missy Werner Band - Last Goodbye Today
TTITLE6=The Missy Werner Band - If I Fall
TTITLE7=The Missy Werner Band - Right Here
TTITLE8=The Missy Werner Band - I Like the Country
TTITLE9=The Missy Werner Band - Let It Go
TTITLE10=The Missy Werner Band with Chris Jones - Just the Same
TTITLE11=The Missy Werner Band - My First Mistake
TTITLE12=The Missy Werner Band - Blue Skies and Teardrops
TTITLE13=The Missy Werner Band - Journey to My Savior's Side
EXTD=
EXTT0=
EXTT1=
EXTT2=
EXTT3=
EXTT4=
EXTT5=
EXTT6=
EXTT7=
EXTT8=
EXTT9=
EXTT10=
EXTT11=
EXTT12=
EXTT13=
PLAYORDER=
